# xmcd
#
# Track frame offsets: 
#        150
#        15509
#        28922
#        50053
#        64423
#        78922
#        97681
#        114286
#        126675
#        139131
#        158204
#        174480
#        193150
#
# Disc length: 2787 seconds
#
# Revision: 4
# Processed by: cddbd v1.5.2PL0 Copyright (c) Steve Scherf et al.
# Submitted via: ExactAudioCopyFreeDBPlugin 1.0
#
DISCID=b20ae10d
DTITLE=Little Big Town - Pain Killer
DYEAR=2014
DGENRE=Country
TTITLE0=Quit Breaking Up With Me
TTITLE1=Day Drinking
TTITLE2=Tumble And Fall
TTITLE3=Pain Killer
TTITLE4=Girl Crush
TTITLE5=Faster Gun
TTITLE6=Good People
TTITLE7=Stay All Night
TTITLE8=Save Your Sin
TTITLE9=Live Forever
TTITLE10=Things You Don't Think About
TTITLE11=Turn The Lights On
TTITLE12=Silver And Gold
EXTD=YEAR: 2014
EXTT0=
EXTT1=
EXTT2=
EXTT3=
EXTT4=
EXTT5=
EXTT6=
EXTT7=
EXTT8=
EXTT9=
EXTT10=
EXTT11=
EXTT12=
PLAYORDER=
